<svg width="38" height="38" viewBox="0 0 38 38" fill="none" xmlns="http://www.w3.org/2000/svg">
<g clip-path="url(#clip0_3098_23487)">
<path d="M31.5985 14.2433C31.5985 11.4396 30.4847 8.7507 28.5022 6.76817C26.5197 4.78565 23.8308 3.67188 21.0271 3.67188C18.2233 3.67188 15.5345 4.78565 13.5519 6.76817C11.5694 8.7507 10.4556 11.4396 10.4556 14.2433C10.4556 26.5766 5.16992 30.1004 5.16992 30.1004H36.8842C36.8842 30.1004 31.5985 26.5766 31.5985 14.2433Z" fill="#EBEDF9"/>
<path d="M25.2555 30.0996C24.7721 30.7427 24.0782 31.2765 23.2433 31.6475C22.4084 32.0186 21.4618 32.2139 20.4984 32.2139C19.5349 32.2139 18.5883 32.0186 17.7534 31.6475C16.9186 31.2765 16.2247 30.7427 15.7412 30.0996" stroke="#EBEDF9" stroke-width="2" stroke-linecap="round" stroke-linejoin="round"/>
<circle cx="31.0702" cy="8.42905" r="6.87143" fill="#FE6D73"/>
</g>
<defs>
<clipPath id="clip0_3098_23487">
<rect width="37" height="37" fill="white" transform="translate(0.941406 0.5)"/>
</clipPath>
</defs>
</svg>
