<svg width="30" height="30" viewBox="0 0 30 30" fill="none" xmlns="http://www.w3.org/2000/svg">
<rect width="30" height="30" fill="white"/>
<path d="M15.0005 17.3154C16.279 17.3154 17.3154 16.279 17.3154 15.0005C17.3154 13.722 16.279 12.6855 15.0005 12.6855C13.722 12.6855 12.6855 13.722 12.6855 15.0005C12.6855 16.279 13.722 17.3154 15.0005 17.3154Z" stroke="#503E9D" stroke-width="2" stroke-linecap="round" stroke-linejoin="round"/>
<path d="M20.7105 17.3147C20.6077 17.5475 20.5771 17.8056 20.6225 18.056C20.6679 18.3063 20.7872 18.5373 20.9651 18.7191L21.0114 18.7654C21.1549 18.9088 21.2687 19.079 21.3464 19.2663C21.424 19.4537 21.464 19.6545 21.464 19.8573C21.464 20.0601 21.424 20.2609 21.3464 20.4483C21.2687 20.6356 21.1549 20.8058 21.0114 20.9492C20.8681 21.0927 20.6979 21.2065 20.5105 21.2842C20.3232 21.3618 20.1223 21.4018 19.9195 21.4018C19.7167 21.4018 19.5159 21.3618 19.3285 21.2842C19.1412 21.2065 18.971 21.0927 18.8276 20.9492L18.7813 20.9029C18.5995 20.725 18.3685 20.6057 18.1182 20.5603C17.8679 20.5149 17.6097 20.5455 17.377 20.6482C17.1487 20.7461 16.9541 20.9085 16.817 21.1155C16.6799 21.3225 16.6063 21.5651 16.6053 21.8134V21.9446C16.6053 22.3539 16.4427 22.7464 16.1533 23.0359C15.8639 23.3253 15.4713 23.4879 15.062 23.4879C14.6527 23.4879 14.2602 23.3253 13.9708 23.0359C13.6813 22.7464 13.5187 22.3539 13.5187 21.9446V21.8751C13.5128 21.6197 13.4301 21.372 13.2815 21.1642C13.1328 20.9564 12.9251 20.7982 12.6854 20.71C12.4526 20.6072 12.1944 20.5766 11.9441 20.622C11.6938 20.6674 11.4628 20.7867 11.281 20.9646L11.2347 21.0109C11.0913 21.1544 10.9211 21.2682 10.7338 21.3459C10.5464 21.4236 10.3456 21.4635 10.1428 21.4635C9.93998 21.4635 9.73916 21.4236 9.5518 21.3459C9.36445 21.2682 9.19425 21.1544 9.05092 21.0109C8.90743 20.8676 8.79359 20.6974 8.71593 20.51C8.63826 20.3227 8.59829 20.1218 8.59829 19.919C8.59829 19.7162 8.63826 19.5154 8.71593 19.328C8.79359 19.1407 8.90743 18.9705 9.05092 18.8272L9.09721 18.7809C9.27511 18.599 9.39444 18.368 9.43983 18.1177C9.48521 17.8674 9.45457 17.6092 9.35186 17.3765C9.25404 17.1482 9.09162 16.9536 8.8846 16.8165C8.67757 16.6794 8.43498 16.6058 8.18667 16.6048H8.05549C7.64619 16.6048 7.25365 16.4422 6.96423 16.1528C6.6748 15.8634 6.51221 15.4708 6.51221 15.0615C6.51221 14.6522 6.6748 14.2597 6.96423 13.9703C7.25365 13.6808 7.64619 13.5182 8.05549 13.5182H8.12494C8.38035 13.5123 8.62806 13.4296 8.83586 13.281C9.04366 13.1323 9.20194 12.9246 9.29012 12.6849C9.39284 12.4521 9.42348 12.194 9.3781 11.9436C9.33271 11.6933 9.21337 11.4623 9.03548 11.2805L8.98918 11.2342C8.84569 11.0908 8.73186 10.9206 8.6542 10.7333C8.57653 10.5459 8.53656 10.3451 8.53656 10.1423C8.53656 9.93949 8.57653 9.73867 8.6542 9.55132C8.73186 9.36396 8.84569 9.19376 8.98918 9.05043C9.13251 8.90694 9.30272 8.79311 9.49007 8.71544C9.67743 8.63778 9.87825 8.5978 10.0811 8.5978C10.2839 8.5978 10.4847 8.63778 10.672 8.71544C10.8594 8.79311 11.0296 8.90694 11.1729 9.05043L11.2192 9.09673C11.4011 9.27462 11.6321 9.39395 11.8824 9.43934C12.1327 9.48473 12.3909 9.45409 12.6236 9.35137H12.6854C12.9136 9.25355 13.1082 9.09114 13.2453 8.88411C13.3824 8.67709 13.456 8.43449 13.457 8.18619V8.05501C13.457 7.6457 13.6196 7.25316 13.909 6.96374C14.1984 6.67431 14.591 6.51172 15.0003 6.51172C15.4096 6.51172 15.8021 6.67431 16.0916 6.96374C16.381 7.25316 16.5436 7.6457 16.5436 8.05501V8.12445C16.5446 8.37276 16.6181 8.61536 16.7552 8.82238C16.8923 9.0294 17.087 9.19182 17.3152 9.28964C17.548 9.39235 17.8061 9.42299 18.0565 9.37761C18.3068 9.33222 18.5378 9.21289 18.7196 9.03499L18.7659 8.9887C18.9092 8.84521 19.0794 8.73137 19.2668 8.65371C19.4542 8.57605 19.655 8.53607 19.8578 8.53607C20.0606 8.53607 20.2614 8.57605 20.4488 8.65371C20.6361 8.73137 20.8063 8.84521 20.9497 8.9887C21.0932 9.13203 21.207 9.30223 21.2846 9.48958C21.3623 9.67694 21.4023 9.87776 21.4023 10.0806C21.4023 10.2834 21.3623 10.4842 21.2846 10.6716C21.207 10.8589 21.0932 11.0291 20.9497 11.1724L20.9034 11.2187C20.7255 11.4006 20.6061 11.6316 20.5608 11.8819C20.5154 12.1322 20.546 12.3904 20.6487 12.6231V12.6849C20.7465 12.9131 20.909 13.1077 21.116 13.2448C21.323 13.3819 21.5656 13.4555 21.8139 13.4565H21.9451C22.3544 13.4565 22.7469 13.6191 23.0364 13.9085C23.3258 14.198 23.4884 14.5905 23.4884 14.9998C23.4884 15.4091 23.3258 15.8016 23.0364 16.0911C22.7469 16.3805 22.3544 16.5431 21.9451 16.5431H21.8756C21.6273 16.5441 21.3847 16.6177 21.1777 16.7548C20.9707 16.8919 20.8083 17.0865 20.7105 17.3147V17.3147Z" stroke="#503E9D" stroke-width="2" stroke-linecap="round" stroke-linejoin="round"/>
</svg>
