<svg width="56" height="56" viewBox="0 0 56 56" fill="none" xmlns="http://www.w3.org/2000/svg">
<circle cx="28" cy="28" r="28" fill="url(#paint0_linear_3098_23956)"/>
<path fill-rule="evenodd" clip-rule="evenodd" d="M33.4434 29.3184C35.0417 30.4034 36.1617 31.8734 36.1617 33.8334V37.3334H39.6617C40.3034 37.3334 40.8284 36.8084 40.8284 36.1667V33.8334C40.8284 31.29 36.6634 29.785 33.4434 29.3184Z" fill="white"/>
<path d="M24.4982 27.9998C27.0755 27.9998 29.1649 25.9105 29.1649 23.3332C29.1649 20.7558 27.0755 18.6665 24.4982 18.6665C21.9209 18.6665 19.8315 20.7558 19.8315 23.3332C19.8315 25.9105 21.9209 27.9998 24.4982 27.9998Z" fill="white"/>
<path fill-rule="evenodd" clip-rule="evenodd" d="M31.4955 27.9998C34.0738 27.9998 36.1622 25.9115 36.1622 23.3332C36.1622 20.7548 34.0738 18.6665 31.4955 18.6665C30.9472 18.6665 30.4338 18.7832 29.9438 18.9465C30.9122 20.1482 31.4955 21.6765 31.4955 23.3332C31.4955 24.9898 30.9122 26.5182 29.9438 27.7198C30.4338 27.8832 30.9472 27.9998 31.4955 27.9998Z" fill="white"/>
<path fill-rule="evenodd" clip-rule="evenodd" d="M24.4959 29.1665C21.3809 29.1665 15.1626 30.7298 15.1626 33.8332V36.1665C15.1626 36.8082 15.6876 37.3332 16.3293 37.3332H32.6626C33.3043 37.3332 33.8293 36.8082 33.8293 36.1665V33.8332C33.8293 30.7298 27.6109 29.1665 24.4959 29.1665Z" fill="white"/>
<defs>
<linearGradient id="paint0_linear_3098_23956" x1="0" y1="0" x2="56" y2="56" gradientUnits="userSpaceOnUse">
<stop stop-color="#868CFF"/>
<stop offset="1" stop-color="#503E9D"/>
</linearGradient>
</defs>
</svg>
