<svg width="56" height="56" viewBox="0 0 56 56" fill="none" xmlns="http://www.w3.org/2000/svg">
<circle cx="28" cy="28" r="28" fill="#F4F7FE"/>
<path d="M41.63 24.0407H35.0754L29.0818 15.064C28.8218 14.6808 28.3839 14.4893 27.946 14.4893C27.5081 14.4893 27.0702 14.6808 26.8102 15.0777L20.8166 24.0407H14.262C13.5093 24.0407 12.8936 24.6565 12.8936 25.4091C12.8936 25.5323 12.9072 25.6554 12.9483 25.7786L16.424 38.4637C16.7388 39.6131 17.7924 40.4615 19.0514 40.4615H36.8406C38.0995 40.4615 39.1532 39.6131 39.4816 38.4637L42.9574 25.7786L42.9984 25.4091C42.9984 24.6565 42.3826 24.0407 41.63 24.0407ZM27.946 18.2934L31.7775 24.0407H24.1145L27.946 18.2934ZM36.8406 37.7247L19.0651 37.7384L16.0546 26.7775H39.8511L36.8406 37.7247ZM27.946 29.5143C26.4407 29.5143 25.2092 30.7459 25.2092 32.2511C25.2092 33.7564 26.4407 34.9879 27.946 34.9879C29.4512 34.9879 30.6828 33.7564 30.6828 32.2511C30.6828 30.7459 29.4512 29.5143 27.946 29.5143Z" fill="#503E9D"/>
</svg>
