<svg width="56" height="56" viewBox="0 0 56 56" fill="none" xmlns="http://www.w3.org/2000/svg">
<circle cx="28" cy="28" r="28" fill="#F4F7FE"/>
<path d="M20.2854 24.3137H20.5591C21.6127 24.3137 22.4748 25.1758 22.4748 26.2295V35.8083C22.4748 36.862 21.6127 37.724 20.5591 37.724H20.2854C19.2317 37.724 18.3696 36.862 18.3696 35.8083V26.2295C18.3696 25.1758 19.2317 24.3137 20.2854 24.3137ZM27.9484 18.5664C29.0021 18.5664 29.8642 19.4285 29.8642 20.4822V35.8083C29.8642 36.862 29.0021 37.724 27.9484 37.724C26.8948 37.724 26.0327 36.862 26.0327 35.8083V20.4822C26.0327 19.4285 26.8948 18.5664 27.9484 18.5664ZM35.6115 29.5136C36.6652 29.5136 37.5273 30.3757 37.5273 31.4294V35.8083C37.5273 36.862 36.6652 37.724 35.6115 37.724C34.5578 37.724 33.6957 36.862 33.6957 35.8083V31.4294C33.6957 30.3757 34.5578 29.5136 35.6115 29.5136Z" fill="#503E9D"/>
</svg>
