<svg width="21" height="22" viewBox="0 0 21 22" fill="none" xmlns="http://www.w3.org/2000/svg">
<path d="M19.351 17.3988C18.8457 16.2021 18.1125 15.115 17.1922 14.1982C16.2747 13.2787 15.1877 12.5456 13.9915 12.0394C13.9808 12.034 13.9701 12.0313 13.9594 12.026C15.628 10.8207 16.7127 8.85744 16.7127 6.64241C16.7127 2.97302 13.7397 0 10.0703 0C6.40094 0 3.42792 2.97302 3.42792 6.64241C3.42792 8.85744 4.51267 10.8207 6.18131 12.0287C6.17059 12.034 6.15988 12.0367 6.14917 12.042C4.94925 12.5483 3.87253 13.2741 2.94849 14.2008C2.02902 15.1184 1.29593 16.2053 0.789704 17.4015C0.292386 18.5726 0.0241715 19.8283 -0.000421305 21.1004C-0.00113618 21.129 0.00387784 21.1574 0.0143255 21.184C0.0247731 21.2106 0.0404428 21.2349 0.0604114 21.2554C0.08038 21.2758 0.104243 21.2921 0.130595 21.3032C0.156947 21.3143 0.185255 21.32 0.21385 21.32H1.82089C1.93873 21.32 2.03248 21.2263 2.03516 21.1111C2.08872 19.0434 2.91903 17.1069 4.38679 15.6391C5.90543 14.1205 7.92226 13.2848 10.0703 13.2848C12.2184 13.2848 14.2352 14.1205 15.7539 15.6391C17.2216 17.1069 18.0519 19.0434 18.1055 21.1111C18.1082 21.2289 18.2019 21.32 18.3198 21.32H19.9268C19.9554 21.32 19.9837 21.3143 20.0101 21.3032C20.0364 21.2921 20.0603 21.2758 20.0803 21.2554C20.1002 21.2349 20.1159 21.2106 20.1263 21.184C20.1368 21.1574 20.1418 21.129 20.1411 21.1004C20.1143 19.8201 19.8491 18.5746 19.351 17.3988ZM10.0703 11.2492C8.84095 11.2492 7.68389 10.7698 6.81341 9.89934C5.94293 9.02886 5.4635 7.87179 5.4635 6.64241C5.4635 5.41303 5.94293 4.25596 6.81341 3.38549C7.68389 2.51501 8.84095 2.03558 10.0703 2.03558C11.2997 2.03558 12.4568 2.51501 13.3273 3.38549C14.1977 4.25596 14.6772 5.41303 14.6772 6.64241C14.6772 7.87179 14.1977 9.02886 13.3273 9.89934C12.4568 10.7698 11.2997 11.2492 10.0703 11.2492Z" fill="#503E9D"/>
</svg>
