<svg width="24" height="24" viewBox="0 0 24 24" fill="none" xmlns="http://www.w3.org/2000/svg">
<path d="M14.686 11.5123L6.38428 10.0498V20.8566C6.38438 20.974 6.4076 21.0902 6.45262 21.1986C6.49763 21.307 6.56357 21.4055 6.64665 21.4885C6.72974 21.5714 6.82835 21.6372 6.93685 21.682C7.04535 21.7269 7.16163 21.7499 7.27903 21.7498H21.604C21.7216 21.7501 21.838 21.7272 21.9467 21.6825C22.0553 21.6377 22.1541 21.572 22.2374 21.489C22.3206 21.4061 22.3867 21.3075 22.4318 21.199C22.4769 21.0904 22.5002 20.9741 22.5003 20.8566V16.8748L14.686 11.5123Z" fill="#185C37"/>
<path d="M14.686 2.25H7.27903C7.16163 2.2499 7.04535 2.27293 6.93685 2.31776C6.82835 2.3626 6.72974 2.42837 6.64665 2.51132C6.56357 2.59426 6.49763 2.69276 6.45262 2.80119C6.4076 2.90962 6.38438 3.02585 6.38428 3.14325V7.125L14.686 12L19.0818 13.4625L22.5003 12V7.125L14.686 2.25Z" fill="#21A366"/>
<path d="M6.38428 7.125H14.686V12H6.38428V7.125Z" fill="#107C41"/>
<path opacity="0.1" d="M12.3258 6.1499H6.38428V18.3374H12.3258C12.5625 18.3362 12.7893 18.2418 12.9569 18.0746C13.1245 17.9074 13.2195 17.6809 13.2213 17.4442V7.04315C13.2195 6.80641 13.1245 6.57989 12.9569 6.4127C12.7893 6.2455 12.5625 6.15108 12.3258 6.1499Z" fill="black"/>
<path opacity="0.2" d="M11.8375 6.6377H6.38428V18.8252H11.8375C12.0743 18.824 12.301 18.7296 12.4686 18.5624C12.6363 18.3952 12.7313 18.1687 12.733 17.9319V7.53095C12.7313 7.2942 12.6363 7.06769 12.4686 6.90049C12.301 6.73329 12.0743 6.63887 11.8375 6.6377Z" fill="black"/>
<path opacity="0.2" d="M11.8375 6.6377H6.38428V17.8502H11.8375C12.0743 17.849 12.301 17.7546 12.4686 17.5874C12.6363 17.4202 12.7313 17.1937 12.733 16.9569V7.53095C12.7313 7.2942 12.6363 7.06769 12.4686 6.90049C12.301 6.73329 12.0743 6.63887 11.8375 6.6377Z" fill="black"/>
<path opacity="0.2" d="M11.3493 6.6377H6.38428V17.8502H11.3493C11.586 17.849 11.8128 17.7546 11.9804 17.5874C12.148 17.4202 12.243 17.1937 12.2448 16.9569V7.53095C12.243 7.2942 12.148 7.06769 11.9804 6.90049C11.8128 6.73329 11.586 6.63887 11.3493 6.6377Z" fill="black"/>
<path d="M2.3955 6.6377H11.349C11.5862 6.6375 11.8137 6.73147 11.9816 6.89897C12.1496 7.06646 12.2441 7.29377 12.2445 7.53095V16.4694C12.2441 16.7066 12.1496 16.9339 11.9816 17.1014C11.8137 17.2689 11.5862 17.3629 11.349 17.3627H2.3955C2.27804 17.3629 2.16168 17.3399 2.05309 17.2951C1.9445 17.2504 1.84581 17.1846 1.76264 17.1016C1.67948 17.0187 1.61348 16.9202 1.56841 16.8117C1.52334 16.7032 1.5001 16.5869 1.5 16.4694V7.53095C1.5001 7.41348 1.52334 7.29719 1.56841 7.18871C1.61348 7.08023 1.67948 6.9817 1.76264 6.89875C1.84581 6.81579 1.9445 6.75004 2.05309 6.70525C2.16168 6.66045 2.27804 6.6375 2.3955 6.6377Z" fill="url(#paint0_linear_3098_24287)"/>
<path d="M4.27539 14.9047L6.15864 11.9917L4.43364 9.09521H5.81889L6.76014 10.95C6.84714 11.1255 6.91014 11.256 6.93864 11.343H6.95139C7.01289 11.202 7.07814 11.0662 7.14639 10.9335L8.15289 9.09821H9.42789L7.65864 11.9782L9.47289 14.907H8.11614L7.02864 12.8737C6.97815 12.7863 6.93524 12.6947 6.90039 12.6H6.88239C6.85068 12.6923 6.8084 12.7806 6.75639 12.8632L5.63664 14.9047H4.27539Z" fill="white"/>
<path d="M21.6043 2.25H14.6855V7.125H22.4998V3.14325C22.4997 3.02579 22.4765 2.90949 22.4314 2.80102C22.3863 2.69254 22.3203 2.59401 22.2372 2.51105C22.154 2.4281 22.0553 2.36234 21.9467 2.31755C21.8381 2.27276 21.7218 2.2498 21.6043 2.25Z" fill="#33C481"/>
<path d="M14.6855 12H22.4998V16.875H14.6855V12Z" fill="#107C41"/>
<defs>
<linearGradient id="paint0_linear_3098_24287" x1="3.3705" y1="5.9357" x2="10.374" y2="18.0647" gradientUnits="userSpaceOnUse">
<stop stop-color="#18884F"/>
<stop offset="0.5" stop-color="#117E43"/>
<stop offset="1" stop-color="#0B6631"/>
</linearGradient>
</defs>
</svg>
