<svg width="28" height="25" viewBox="0 0 28 25" fill="none" xmlns="http://www.w3.org/2000/svg">
<path d="M19.0985 7.25C19.0985 7.84674 18.8378 8.41903 18.3736 8.84099C17.9095 9.26295 17.28 9.5 16.6235 9.5C15.9671 9.5 15.3376 9.26295 14.8735 8.84099C14.4093 8.41903 14.1485 7.84674 14.1485 7.25C14.1485 6.65326 14.4093 6.08097 14.8735 5.65901C15.3376 5.23705 15.9671 5 16.6235 5C17.28 5 17.9095 5.23705 18.3736 5.65901C18.8378 6.08097 19.0985 6.65326 19.0985 7.25ZM17.4485 7.25C17.4485 7.05109 17.3616 6.86032 17.2069 6.71967C17.0522 6.57902 16.8423 6.5 16.6235 6.5C16.4047 6.5 16.1949 6.57902 16.0402 6.71967C15.8855 6.86032 15.7985 7.05109 15.7985 7.25C15.7985 7.44891 15.8855 7.63968 16.0402 7.78033C16.1949 7.92098 16.4047 8 16.6235 8C16.8423 8 17.0522 7.92098 17.2069 7.78033C17.3616 7.63968 17.4485 7.44891 17.4485 7.25ZM0.950195 5C0.950195 3.80653 1.47171 2.66193 2.40002 1.81802C3.32832 0.974106 4.58737 0.5 5.9002 0.5H19.0985C20.4114 0.5 21.6704 0.974106 22.5987 1.81802C23.527 2.66193 24.0485 3.80653 24.0485 5V9.503C23.4803 9.52648 22.9214 9.64284 22.3985 9.8465V5C22.3985 4.20435 22.0509 3.44129 21.432 2.87868C20.8131 2.31607 19.9738 2 19.0985 2H5.89855C5.02333 2 4.18396 2.31607 3.56509 2.87868C2.94622 3.44129 2.59855 4.20435 2.59855 5V16.9985C2.59855 17.5565 2.7685 18.08 3.06055 18.5285L10.7644 11.6465C11.2272 11.2333 11.8499 11.0019 12.4985 11.0019C13.1472 11.0019 13.7699 11.2333 14.2327 11.6465L17.1119 14.219L15.9454 15.2795L13.0777 12.716C12.9234 12.5781 12.7157 12.5009 12.4994 12.5009C12.283 12.5009 12.0753 12.5781 11.921 12.716L4.2304 19.586C4.73625 19.8573 5.31288 20.0002 5.9002 20H11.6323C11.6059 20.075 11.5828 20.1545 11.5613 20.2325L11.2132 21.5H5.9002C4.58737 21.5 3.32832 21.0259 2.40002 20.182C1.47171 19.3381 0.950195 18.1935 0.950195 17V5ZM14.1155 19.064L22.0834 11.819C22.6623 11.2931 23.4474 10.9978 24.2659 10.9981C25.0843 10.9983 25.8691 11.2942 26.4476 11.8205C27.0262 12.3468 27.351 13.0605 27.3507 13.8046C27.3504 14.5486 27.025 15.2621 26.446 15.788L18.4781 23.03C18.0139 23.4523 17.4322 23.7519 16.7951 23.897L14.3234 24.4595C14.0776 24.515 13.8202 24.5117 13.5762 24.45C13.3321 24.3883 13.1098 24.2703 12.9308 24.1074C12.7518 23.9445 12.6221 23.7423 12.5545 23.5204C12.4869 23.2985 12.4835 23.0644 12.5447 22.841L13.1618 20.594C13.3219 20.015 13.6502 19.4855 14.1155 19.064Z" fill="#113255"/>
</svg>
