<svg width="30" height="30" viewBox="0 0 30 30" fill="none" xmlns="http://www.w3.org/2000/svg">
<rect width="30" height="30" fill="none"/>
<path d="M15.0005 17.3154C16.279 17.3154 17.3154 16.279 17.3154 15.0005C17.3154 13.722 16.279 12.6855 15.0005 12.6855C13.722 12.6855 12.6855 13.722 12.6855 15.0005C12.6855 16.279 13.722 17.3154 15.0005 17.3154Z" stroke="white" stroke-width="2" stroke-linecap="round" stroke-linejoin="round"/>
<path d="M20.7105 17.3152C20.6077 17.548 20.5771 17.8061 20.6225 18.0565C20.6679 18.3068 20.7872 18.5378 20.9651 18.7196L21.0114 18.7659C21.1549 18.9092 21.2687 19.0794 21.3464 19.2668C21.424 19.4542 21.464 19.655 21.464 19.8578C21.464 20.0606 21.424 20.2614 21.3464 20.4488C21.2687 20.6361 21.1549 20.8063 21.0114 20.9497C20.8681 21.0932 20.6979 21.207 20.5105 21.2846C20.3232 21.3623 20.1223 21.4023 19.9195 21.4023C19.7167 21.4023 19.5159 21.3623 19.3285 21.2846C19.1412 21.207 18.971 21.0932 18.8276 20.9497L18.7813 20.9034C18.5995 20.7255 18.3685 20.6061 18.1182 20.5608C17.8679 20.5154 17.6097 20.546 17.377 20.6487C17.1487 20.7465 16.9541 20.909 16.817 21.116C16.6799 21.323 16.6063 21.5656 16.6053 21.8139V21.9451C16.6053 22.3544 16.4427 22.7469 16.1533 23.0364C15.8639 23.3258 15.4713 23.4884 15.062 23.4884C14.6527 23.4884 14.2602 23.3258 13.9708 23.0364C13.6813 22.7469 13.5187 22.3544 13.5187 21.9451V21.8756C13.5128 21.6202 13.4301 21.3725 13.2815 21.1647C13.1328 20.9569 12.9251 20.7986 12.6854 20.7105C12.4526 20.6077 12.1944 20.5771 11.9441 20.6225C11.6938 20.6679 11.4628 20.7872 11.281 20.9651L11.2347 21.0114C11.0913 21.1549 10.9211 21.2687 10.7338 21.3464C10.5464 21.424 10.3456 21.464 10.1428 21.464C9.93998 21.464 9.73916 21.424 9.5518 21.3464C9.36445 21.2687 9.19425 21.1549 9.05092 21.0114C8.90743 20.8681 8.79359 20.6979 8.71593 20.5105C8.63826 20.3232 8.59829 20.1223 8.59829 19.9195C8.59829 19.7167 8.63826 19.5159 8.71593 19.3285C8.79359 19.1412 8.90743 18.971 9.05092 18.8276L9.09721 18.7813C9.27511 18.5995 9.39444 18.3685 9.43983 18.1182C9.48521 17.8679 9.45457 17.6097 9.35186 17.377C9.25404 17.1487 9.09162 16.9541 8.8846 16.817C8.67757 16.6799 8.43498 16.6063 8.18667 16.6053H8.05549C7.64619 16.6053 7.25365 16.4427 6.96423 16.1533C6.6748 15.8639 6.51221 15.4713 6.51221 15.062C6.51221 14.6527 6.6748 14.2602 6.96423 13.9708C7.25365 13.6813 7.64619 13.5187 8.05549 13.5187H8.12494C8.38035 13.5128 8.62806 13.4301 8.83586 13.2815C9.04366 13.1328 9.20194 12.9251 9.29012 12.6854C9.39284 12.4526 9.42348 12.1944 9.3781 11.9441C9.33271 11.6938 9.21337 11.4628 9.03548 11.281L8.98918 11.2347C8.84569 11.0913 8.73186 10.9211 8.6542 10.7338C8.57653 10.5464 8.53656 10.3456 8.53656 10.1428C8.53656 9.93998 8.57653 9.73916 8.6542 9.5518C8.73186 9.36445 8.84569 9.19425 8.98918 9.05092C9.13251 8.90743 9.30272 8.79359 9.49007 8.71593C9.67743 8.63826 9.87825 8.59829 10.0811 8.59829C10.2839 8.59829 10.4847 8.63826 10.672 8.71593C10.8594 8.79359 11.0296 8.90743 11.1729 9.05092L11.2192 9.09721C11.4011 9.27511 11.6321 9.39444 11.8824 9.43983C12.1327 9.48521 12.3909 9.45457 12.6236 9.35186H12.6854C12.9136 9.25404 13.1082 9.09162 13.2453 8.8846C13.3824 8.67757 13.456 8.43498 13.457 8.18667V8.05549C13.457 7.64619 13.6196 7.25365 13.909 6.96423C14.1984 6.6748 14.591 6.51221 15.0003 6.51221C15.4096 6.51221 15.8021 6.6748 16.0916 6.96423C16.381 7.25365 16.5436 7.64619 16.5436 8.05549V8.12494C16.5446 8.37325 16.6181 8.61584 16.7552 8.82287C16.8923 9.02989 17.087 9.19231 17.3152 9.29012C17.548 9.39284 17.8061 9.42348 18.0565 9.3781C18.3068 9.33271 18.5378 9.21337 18.7196 9.03548L18.7659 8.98918C18.9092 8.84569 19.0794 8.73186 19.2668 8.6542C19.4542 8.57653 19.655 8.53656 19.8578 8.53656C20.0606 8.53656 20.2614 8.57653 20.4488 8.6542C20.6361 8.73186 20.8063 8.84569 20.9497 8.98918C21.0932 9.13251 21.207 9.30272 21.2846 9.49007C21.3623 9.67743 21.4023 9.87825 21.4023 10.0811C21.4023 10.2839 21.3623 10.4847 21.2846 10.672C21.207 10.8594 21.0932 11.0296 20.9497 11.1729L20.9034 11.2192C20.7255 11.4011 20.6061 11.6321 20.5608 11.8824C20.5154 12.1327 20.546 12.3909 20.6487 12.6236V12.6854C20.7465 12.9136 20.909 13.1082 21.116 13.2453C21.323 13.3824 21.5656 13.456 21.8139 13.457H21.9451C22.3544 13.457 22.7469 13.6196 23.0364 13.909C23.3258 14.1984 23.4884 14.591 23.4884 15.0003C23.4884 15.4096 23.3258 15.8021 23.0364 16.0916C22.7469 16.381 22.3544 16.5436 21.9451 16.5436H21.8756C21.6273 16.5446 21.3847 16.6181 21.1777 16.7552C20.9707 16.8923 20.8083 17.087 20.7105 17.3152V17.3152Z" stroke="white" stroke-width="2" stroke-linecap="round" stroke-linejoin="round"/>
</svg>