<svg width="30" height="30" viewBox="0 0 30 30" fill="none" xmlns="http://www.w3.org/2000/svg">
<path d="M21.7321 18.6573L21.7334 18.6586C22.594 19.516 23.2797 20.5325 23.7521 21.6516L24.351 21.3988L23.7525 21.6524C24.1605 22.6154 24.4014 23.6281 24.4716 24.67H23.7341C23.5804 22.5957 22.6982 20.6643 21.2135 19.1795C19.573 17.539 17.3908 16.6348 15.0703 16.6348C12.7498 16.6348 10.5677 17.539 8.92717 19.1795C7.44242 20.6643 6.56024 22.5957 6.40656 24.67H5.66858C5.73814 23.6331 5.98098 22.6141 6.388 21.6556L6.38831 21.6548C6.86183 20.5359 7.54756 19.5192 8.40762 18.6609L8.40877 18.6598C9.27352 17.7925 10.2798 17.1143 11.4018 16.6409L11.4066 16.6389L11.4179 16.6345C11.4312 16.6291 11.4501 16.621 11.472 16.61L12.4307 16.1307L11.5625 15.5021C10.0554 14.4111 9.07792 12.6401 9.07792 10.6424C9.07792 7.332 11.7599 4.65 15.0703 4.65C18.3807 4.65 21.0627 7.332 21.0627 10.6424C21.0627 12.6402 20.0852 14.4109 18.5788 15.4991L17.7088 16.1274L18.6687 16.6074C18.6906 16.6183 18.7095 16.6264 18.7228 16.6318L18.7343 16.6363L18.7382 16.638C19.8571 17.1115 20.8738 17.7972 21.7321 18.6573ZM23.7553 25.0963L23.7553 25.0943L23.7553 25.0963ZM5.64939 25.1166L5.64946 25.1129L5.64939 25.1166ZM18.7472 16.6413C18.7489 16.6419 18.7482 16.6417 18.7471 16.6412L18.7472 16.6413ZM11.3538 14.359C12.346 15.3512 13.6684 15.8992 15.0703 15.8992C16.4723 15.8992 17.7946 15.3512 18.7869 14.359C19.7791 13.3667 20.3272 12.0444 20.3272 10.6424C20.3272 9.24046 19.7791 7.91811 18.7869 6.92587C17.7946 5.93362 16.4723 5.38558 15.0703 5.38558C13.6684 5.38558 12.346 5.93362 11.3538 6.92587C10.3615 7.91811 9.8135 9.24046 9.8135 10.6424C9.8135 12.0444 10.3615 13.3667 11.3538 14.359Z" fill="white" stroke="white" stroke-width="1.3"/>
</svg>
