<svg width="32" height="31" viewBox="0 0 32 31" fill="none" xmlns="http://www.w3.org/2000/svg">
<path d="M26.5985 11.2428C26.5985 8.4391 25.4847 5.75021 23.5022 3.76769C21.5197 1.78516 18.8308 0.671387 16.0271 0.671387C13.2233 0.671387 10.5345 1.78516 8.55194 3.76769C6.56941 5.75021 5.45564 8.4391 5.45564 11.2428C5.45564 23.5761 0.169922 27.1 0.169922 27.1H31.8842C31.8842 27.1 26.5985 23.5761 26.5985 11.2428Z" fill="#EBEDF9"/>
<path d="M20.2555 27.1001C19.7721 27.7432 19.0782 28.277 18.2433 28.648C17.4084 29.0191 16.4618 29.2144 15.4984 29.2144C14.5349 29.2144 13.5883 29.0191 12.7534 28.648C11.9186 28.277 11.2247 27.7432 10.7412 27.1001" stroke="#EBEDF9" stroke-width="2" stroke-linecap="round" stroke-linejoin="round"/>
</svg>
